<svg xmlns="http://www.w3.org/2000/svg" id="mermaid-1589484995160" width="100%" height="100%" viewBox="-50 -10 1450 1105" style="max-width:1450px"><style>#mermaid-1589484995160 .actor{stroke:#ccf;fill:#ececff}#mermaid-1589484995160 text.actor{fill:#000;stroke:none}#mermaid-1589484995160 .actor-line{stroke:gray}#mermaid-1589484995160 .messageLine0{stroke-width:1.5;stroke-dasharray:&apos;2 2&apos;;stroke:#333}#mermaid-1589484995160 #arrowhead,#mermaid-1589484995160 #sequencenumber{fill:#333}#mermaid-1589484995160 #crosshead path{fill:#333!important;stroke:#333!important}#mermaid-1589484995160 .messageText{fill:#333;stroke:none}#mermaid-1589484995160 .labelBox{stroke:#ccf;fill:#ececff}#mermaid-1589484995160 .labelText,#mermaid-1589484995160 .loopText{fill:#000;stroke:none}#mermaid-1589484995160 .loopLine{stroke-width:2;stroke-dasharray:&apos;2 2&apos;;stroke:#ccf}#mermaid-1589484995160 .note{stroke:#aa3;fill:#fff5ad}#mermaid-1589484995160 .noteText{fill:#000;stroke:none;font-family:&apos;trebuchet ms&apos;,verdana,arial;font-family:var(--mermaid-font-family);font-size:14px}:root{--mermaid-font-family: &apos;&quot;trebuchet ms&quot;, verdana, arial&apos;;--mermaid-font-family: &quot;Comic Sans MS&quot;, &quot;Comic Sans&quot;, cursive;--mermaid-font-family: &quot;trebuchet ms&quot;, verdana, arial}</style><style>#mermaid-1589484995160{color:#000;font:16px &quot;trebuchet ms&quot;,verdana,arial}</style><g><line id="actor0" x1="75" x2="75" y1="5" y2="1094" stroke="#999" stroke-width=".5" class="actor-line"/><rect width="150" height="65" x="0" y="0" fill="#eaeaea" stroke="#666" class="actor" rx="3" ry="3"/><text x="75" y="32.5" alignment-baseline="central" class="actor" dominant-baseline="central" style="text-anchor:middle;font-size:14px"><tspan x="75" dy="0">User</tspan></text></g><g><line id="actor1" x1="275" x2="275" y1="5" y2="1094" stroke="#999" stroke-width=".5" class="actor-line"/><rect width="150" height="65" x="200" y="0" fill="#eaeaea" stroke="#666" class="actor" rx="3" ry="3"/><text x="275" y="32.5" alignment-baseline="central" class="actor" dominant-baseline="central" style="text-anchor:middle;font-size:14px"><tspan x="275" dy="0">Cass Operator</tspan></text></g><g><line id="actor2" x1="475" x2="475" y1="5" y2="1094" stroke="#999" stroke-width=".5" class="actor-line"/><rect width="150" height="65" x="400" y="0" fill="#eaeaea" stroke="#666" class="actor" rx="3" ry="3"/><text x="475" y="32.5" alignment-baseline="central" class="actor" dominant-baseline="central" style="text-anchor:middle;font-size:14px"><tspan x="475" dy="-7">dc1</tspan></text><text x="475" y="32.5" alignment-baseline="central" class="actor" dominant-baseline="central" style="text-anchor:middle;font-size:14px"><tspan x="475" dy="7">CassandraDatacenter</tspan></text></g><g><line id="actor3" x1="675" x2="675" y1="5" y2="1094" stroke="#999" stroke-width=".5" class="actor-line"/><rect width="150" height="65" x="600" y="0" fill="#eaeaea" stroke="#666" class="actor" rx="3" ry="3"/><text x="675" y="32.5" alignment-baseline="central" class="actor" dominant-baseline="central" style="text-anchor:middle;font-size:14px"><tspan x="675" dy="-7">cluster1-dc1-r1-sts</tspan></text><text x="675" y="32.5" alignment-baseline="central" class="actor" dominant-baseline="central" style="text-anchor:middle;font-size:14px"><tspan x="675" dy="7">StatefulSet</tspan></text></g><g><line id="actor4" x1="875" x2="875" y1="5" y2="1094" stroke="#999" stroke-width=".5" class="actor-line"/><rect width="150" height="65" x="800" y="0" fill="#eaeaea" stroke="#666" class="actor" rx="3" ry="3"/><text x="875" y="32.5" alignment-baseline="central" class="actor" dominant-baseline="central" style="text-anchor:middle;font-size:14px"><tspan x="875" dy="-7">StatefulSet</tspan></text><text x="875" y="32.5" alignment-baseline="central" class="actor" dominant-baseline="central" style="text-anchor:middle;font-size:14px"><tspan x="875" dy="7">Controller</tspan></text></g><g><line id="actor5" x1="1075" x2="1075" y1="5" y2="1094" stroke="#999" stroke-width=".5" class="actor-line"/><rect width="150" height="65" x="1000" y="0" fill="#eaeaea" stroke="#666" class="actor" rx="3" ry="3"/><text x="1075" y="32.5" alignment-baseline="central" class="actor" dominant-baseline="central" style="text-anchor:middle;font-size:14px"><tspan x="1075" dy="-7">cluster1-dc1-r1-sts-1</tspan></text><text x="1075" y="32.5" alignment-baseline="central" class="actor" dominant-baseline="central" style="text-anchor:middle;font-size:14px"><tspan x="1075" dy="7">Pod</tspan></text></g><g><line id="actor6" x1="1275" x2="1275" y1="5" y2="1094" stroke="#999" stroke-width=".5" class="actor-line"/><rect width="150" height="65" x="1200" y="0" fill="#eaeaea" stroke="#666" class="actor" rx="3" ry="3"/><text x="1275" y="32.5" alignment-baseline="central" class="actor" dominant-baseline="central" style="text-anchor:middle;font-size:14px"><tspan x="1275" dy="-7">cluster1-dc1-r1-sts-2</tspan></text><text x="1275" y="32.5" alignment-baseline="central" class="actor" dominant-baseline="central" style="text-anchor:middle;font-size:14px"><tspan x="1275" dy="7">Pod</tspan></text></g><defs><marker id="arrowhead" markerHeight="4" markerWidth="6" orient="auto" refX="5" refY="2"><path d="M 0,0 V 4 L6,2 Z"/></marker></defs><defs><marker id="crosshead" markerHeight="8" markerWidth="15" orient="auto" refX="16" refY="4"><path fill="#000" stroke="#000" stroke-width="1" d="M 9,2 V 6 L16,4 Z" style="stroke-dasharray:0,0"/><path fill="none" stroke="#000" stroke-width="1" d="M 0,1 L 6,7 M 6,1 L 0,7" style="stroke-dasharray:0,0"/></marker></defs><defs><marker id="sequencenumber" markerHeight="40" markerWidth="60" orient="auto" refX="15" refY="15"><circle cx="15" cy="15" r="6"/></marker></defs><g><text x="275" y="93" class="messageText" style="text-anchor:middle">update size by 2</text><line x1="75" x2="475" y1="100" y2="100" stroke="#000" stroke-width="2" marker-end="url(#arrowhead)" class="messageLine0" style="fill:none"/></g><g><text x="375" y="128" class="messageText" style="text-anchor:middle">update event</text><line x1="475" x2="275" y1="135" y2="135" stroke="#000" stroke-width="2" marker-end="url(#arrowhead)" class="messageLine0" style="fill:none"/></g><g><text x="375" y="163" class="messageText" style="text-anchor:middle">set ScalingUp condition to True</text><line x1="275" x2="475" y1="170" y2="170" stroke="#000" stroke-width="2" marker-end="url(#arrowhead)" class="messageLine0" style="fill:none"/></g><g><text x="475" y="198" class="messageText" style="text-anchor:middle">increment replicas by 2</text><line x1="275" x2="675" y1="205" y2="205" stroke="#000" stroke-width="2" marker-end="url(#arrowhead)" class="messageLine0" style="fill:none"/></g><g><text x="775" y="233" class="messageText" style="text-anchor:middle">update event</text><line x1="675" x2="875" y1="240" y2="240" stroke="#000" stroke-width="2" marker-end="url(#arrowhead)" class="messageLine0" style="fill:none"/></g><g><text x="975" y="293" class="messageText" style="text-anchor:middle">create</text><line x1="875" x2="1075" y1="300" y2="300" stroke="#000" stroke-width="2" marker-end="url(#arrowhead)" class="messageLine0" style="fill:none"/></g><g><text x="1075" y="348" class="messageText" style="text-anchor:middle">create</text><line x1="875" x2="1275" y1="355" y2="355" stroke="#000" stroke-width="2" marker-end="url(#arrowhead)" class="messageLine0" style="fill:none"/></g><g><line x1="865" x2="1285" y1="250" y2="250" class="loopLine"/><line x1="1285" x2="1285" y1="250" y2="365" class="loopLine"/><line x1="865" x2="1285" y1="365" y2="365" class="loopLine"/><line x1="865" x2="865" y1="250" y2="365" class="loopLine"/><line x1="865" x2="1285" y1="310" y2="310" class="loopLine" style="stroke-dasharray:3,3"/><polygon points="865 250 915 250 915 263 906.6 270 865 270" class="labelBox"/><text x="872.5" y="265" class="labelText"><tspan x="872.5">par</tspan></text><text x="1075" y="265" class="loopText" style="text-anchor:middle"><tspan x="1075">[ create pods in parallel ]</tspan></text></g><g><text x="675" y="418" class="messageText" style="text-anchor:middle">check Node Management API running</text><line x1="275" x2="1075" y1="425" y2="425" stroke="#000" stroke-width="2" marker-end="url(#arrowhead)" class="messageLine0" style="fill:none"/></g><g><text x="775" y="453" class="messageText" style="text-anchor:middle">check Node Management API running</text><line x1="275" x2="1275" y1="460" y2="460" stroke="#000" stroke-width="2" marker-end="url(#arrowhead)" class="messageLine0" style="fill:none"/></g><g><line x1="265" x2="1285" y1="375" y2="375" class="loopLine"/><line x1="1285" x2="1285" y1="375" y2="470" class="loopLine"/><line x1="265" x2="1285" y1="470" y2="470" class="loopLine"/><line x1="265" x2="265" y1="375" y2="470" class="loopLine"/><polygon points="265 375 315 375 315 388 306.6 395 265 395" class="labelBox"/><text x="272.5" y="390" class="labelText"><tspan x="272.5">loop</tspan></text><text x="775" y="390" class="loopText" style="text-anchor:middle"><tspan x="775">[ requeue reconcile event until Node Management API running ]</tspan></text></g><g><rect width="850" height="36" x="250" y="480" fill="#EDF2AE" stroke="#666" class="note" rx="0" ry="0"/><text x="246" y="504" class="noteText"><tspan x="266">Assuming Node Management API starts running on cluster1-dc1-r1-sts-1 first</tspan></text></g><g><text x="675" y="544" class="messageText" style="text-anchor:middle">start cassandra</text><line x1="275" x2="1075" y1="551" y2="551" stroke="#000" stroke-width="2" marker-end="url(#arrowhead)" class="messageLine0" style="fill:none"/></g><g><rect width="250" height="52" x="850" y="561" fill="#EDF2AE" stroke="#666" class="note" rx="0" ry="0"/><text x="846" y="585" class="noteText"><tspan x="866">pod ready when cassandra</tspan></text><text x="846" y="601" class="noteText"><tspan x="866">finished starting</tspan></text></g><g><text x="975" y="641" class="messageText" style="text-anchor:middle">update event (pod ready)</text><line x1="1075" x2="875" y1="648" y2="648" stroke="#000" stroke-width="2" marker-end="url(#arrowhead)" class="messageLine0" style="fill:none"/></g><g><text x="775" y="676" class="messageText" style="text-anchor:middle">increment ready replicas</text><line x1="875" x2="675" y1="683" y2="683" stroke="#000" stroke-width="2" marker-end="url(#arrowhead)" class="messageLine0" style="fill:none"/></g><g><text x="475" y="711" class="messageText" style="text-anchor:middle">update event</text><line x1="675" x2="275" y1="718" y2="718" stroke="#000" stroke-width="2" marker-end="url(#arrowhead)" class="messageLine0" style="fill:none"/></g><g><text x="775" y="771" class="messageText" style="text-anchor:middle">check Node Management API running</text><line x1="275" x2="1275" y1="778" y2="778" stroke="#000" stroke-width="2" marker-end="url(#arrowhead)" class="messageLine0" style="fill:none"/></g><g><line x1="265" x2="1285" y1="728" y2="728" class="loopLine"/><line x1="1285" x2="1285" y1="728" y2="788" class="loopLine"/><line x1="265" x2="1285" y1="788" y2="788" class="loopLine"/><line x1="265" x2="265" y1="728" y2="788" class="loopLine"/><polygon points="265 728 315 728 315 741 306.6 748 265 748" class="labelBox"/><text x="272.5" y="743" class="labelText"><tspan x="272.5">loop</tspan></text><text x="775" y="743" class="loopText" style="text-anchor:middle"><tspan x="775">[ requeue reconcile event until Node Management API running ]</tspan></text></g><g><text x="775" y="816" class="messageText" style="text-anchor:middle">start cassandra</text><line x1="275" x2="1275" y1="823" y2="823" stroke="#000" stroke-width="2" marker-end="url(#arrowhead)" class="messageLine0" style="fill:none"/></g><g><rect width="450" height="36" x="850" y="833" fill="#EDF2AE" stroke="#666" class="note" rx="0" ry="0"/><text x="846" y="857" class="noteText"><tspan x="866">pod ready when cassandra finished starting</tspan></text></g><g><text x="1075" y="897" class="messageText" style="text-anchor:middle">update event (pod ready)</text><line x1="1275" x2="875" y1="904" y2="904" stroke="#000" stroke-width="2" marker-end="url(#arrowhead)" class="messageLine0" style="fill:none"/></g><g><text x="775" y="932" class="messageText" style="text-anchor:middle">increment ready replicas</text><line x1="875" x2="675" y1="939" y2="939" stroke="#000" stroke-width="2" marker-end="url(#arrowhead)" class="messageLine0" style="fill:none"/></g><g><text x="475" y="967" class="messageText" style="text-anchor:middle">update event</text><line x1="675" x2="275" y1="974" y2="974" stroke="#000" stroke-width="2" marker-end="url(#arrowhead)" class="messageLine0" style="fill:none"/></g><g><text x="375" y="1002" class="messageText" style="text-anchor:middle">set ScalingUp condition to False</text><line x1="275" x2="475" y1="1009" y2="1009" stroke="#000" stroke-width="2" marker-end="url(#arrowhead)" class="messageLine0" style="fill:none"/></g><g><rect width="150" height="65" x="0" y="1029" fill="#eaeaea" stroke="#666" class="actor" rx="3" ry="3"/><text x="75" y="1061.5" alignment-baseline="central" class="actor" dominant-baseline="central" style="text-anchor:middle;font-size:14px"><tspan x="75" dy="0">User</tspan></text></g><g><rect width="150" height="65" x="200" y="1029" fill="#eaeaea" stroke="#666" class="actor" rx="3" ry="3"/><text x="275" y="1061.5" alignment-baseline="central" class="actor" dominant-baseline="central" style="text-anchor:middle;font-size:14px"><tspan x="275" dy="0">Cass Operator</tspan></text></g><g><rect width="150" height="65" x="400" y="1029" fill="#eaeaea" stroke="#666" class="actor" rx="3" ry="3"/><text x="475" y="1061.5" alignment-baseline="central" class="actor" dominant-baseline="central" style="text-anchor:middle;font-size:14px"><tspan x="475" dy="-7">dc1</tspan></text><text x="475" y="1061.5" alignment-baseline="central" class="actor" dominant-baseline="central" style="text-anchor:middle;font-size:14px"><tspan x="475" dy="7">CassandraDatacenter</tspan></text></g><g><rect width="150" height="65" x="600" y="1029" fill="#eaeaea" stroke="#666" class="actor" rx="3" ry="3"/><text x="675" y="1061.5" alignment-baseline="central" class="actor" dominant-baseline="central" style="text-anchor:middle;font-size:14px"><tspan x="675" dy="-7">cluster1-dc1-r1-sts</tspan></text><text x="675" y="1061.5" alignment-baseline="central" class="actor" dominant-baseline="central" style="text-anchor:middle;font-size:14px"><tspan x="675" dy="7">StatefulSet</tspan></text></g><g><rect width="150" height="65" x="800" y="1029" fill="#eaeaea" stroke="#666" class="actor" rx="3" ry="3"/><text x="875" y="1061.5" alignment-baseline="central" class="actor" dominant-baseline="central" style="text-anchor:middle;font-size:14px"><tspan x="875" dy="-7">StatefulSet</tspan></text><text x="875" y="1061.5" alignment-baseline="central" class="actor" dominant-baseline="central" style="text-anchor:middle;font-size:14px"><tspan x="875" dy="7">Controller</tspan></text></g><g><rect width="150" height="65" x="1000" y="1029" fill="#eaeaea" stroke="#666" class="actor" rx="3" ry="3"/><text x="1075" y="1061.5" alignment-baseline="central" class="actor" dominant-baseline="central" style="text-anchor:middle;font-size:14px"><tspan x="1075" dy="-7">cluster1-dc1-r1-sts-1</tspan></text><text x="1075" y="1061.5" alignment-baseline="central" class="actor" dominant-baseline="central" style="text-anchor:middle;font-size:14px"><tspan x="1075" dy="7">Pod</tspan></text></g><g><rect width="150" height="65" x="1200" y="1029" fill="#eaeaea" stroke="#666" class="actor" rx="3" ry="3"/><text x="1275" y="1061.5" alignment-baseline="central" class="actor" dominant-baseline="central" style="text-anchor:middle;font-size:14px"><tspan x="1275" dy="-7">cluster1-dc1-r1-sts-2</tspan></text><text x="1275" y="1061.5" alignment-baseline="central" class="actor" dominant-baseline="central" style="text-anchor:middle;font-size:14px"><tspan x="1275" dy="7">Pod</tspan></text></g></svg>