<svg xmlns="http://www.w3.org/2000/svg" id="mermaid-1589484999147" width="100%" height="100%" viewBox="-50 -10 2050 1917" style="max-width:2050px"><style>#mermaid-1589484999147 .actor{stroke:#ccf;fill:#ececff}#mermaid-1589484999147 text.actor{fill:#000;stroke:none}#mermaid-1589484999147 .actor-line{stroke:gray}#mermaid-1589484999147 .messageLine0{stroke-width:1.5;stroke-dasharray:&apos;2 2&apos;;stroke:#333}#mermaid-1589484999147 #arrowhead,#mermaid-1589484999147 #sequencenumber{fill:#333}#mermaid-1589484999147 #crosshead path{fill:#333!important;stroke:#333!important}#mermaid-1589484999147 .messageText{fill:#333;stroke:none}#mermaid-1589484999147 .labelBox{stroke:#ccf;fill:#ececff}#mermaid-1589484999147 .labelText,#mermaid-1589484999147 .loopText{fill:#000;stroke:none}#mermaid-1589484999147 .loopLine{stroke-width:2;stroke-dasharray:&apos;2 2&apos;;stroke:#ccf}#mermaid-1589484999147 .note{stroke:#aa3;fill:#fff5ad}#mermaid-1589484999147 .noteText{fill:#000;stroke:none;font-family:&apos;trebuchet ms&apos;,verdana,arial;font-family:var(--mermaid-font-family);font-size:14px}:root{--mermaid-font-family: &apos;&quot;trebuchet ms&quot;, verdana, arial&apos;;--mermaid-font-family: &quot;Comic Sans MS&quot;, &quot;Comic Sans&quot;, cursive;--mermaid-font-family: &quot;trebuchet ms&quot;, verdana, arial}</style><style>#mermaid-1589484999147{color:#000;font:16px &quot;trebuchet ms&quot;,verdana,arial}</style><g><line id="actor0" x1="75" x2="75" y1="5" y2="1906" stroke="#999" stroke-width=".5" class="actor-line"/><rect width="150" height="65" x="0" y="0" fill="#eaeaea" stroke="#666" class="actor" rx="3" ry="3"/><text x="75" y="32.5" alignment-baseline="central" class="actor" dominant-baseline="central" style="text-anchor:middle;font-size:14px"><tspan x="75" dy="0">User</tspan></text></g><g><line id="actor1" x1="275" x2="275" y1="5" y2="1906" stroke="#999" stroke-width=".5" class="actor-line"/><rect width="150" height="65" x="200" y="0" fill="#eaeaea" stroke="#666" class="actor" rx="3" ry="3"/><text x="275" y="32.5" alignment-baseline="central" class="actor" dominant-baseline="central" style="text-anchor:middle;font-size:14px"><tspan x="275" dy="0">Cass Operator</tspan></text></g><g><line id="actor2" x1="475" x2="475" y1="5" y2="1906" stroke="#999" stroke-width=".5" class="actor-line"/><rect width="150" height="65" x="400" y="0" fill="#eaeaea" stroke="#666" class="actor" rx="3" ry="3"/><text x="475" y="32.5" alignment-baseline="central" class="actor" dominant-baseline="central" style="text-anchor:middle;font-size:14px"><tspan x="475" dy="-7">dc1</tspan></text><text x="475" y="32.5" alignment-baseline="central" class="actor" dominant-baseline="central" style="text-anchor:middle;font-size:14px"><tspan x="475" dy="7">CassandraDatacenter</tspan></text></g><g><line id="actor3" x1="675" x2="675" y1="5" y2="1906" stroke="#999" stroke-width=".5" class="actor-line"/><rect width="150" height="65" x="600" y="0" fill="#eaeaea" stroke="#666" class="actor" rx="3" ry="3"/><text x="675" y="32.5" alignment-baseline="central" class="actor" dominant-baseline="central" style="text-anchor:middle;font-size:14px"><tspan x="675" dy="-7">cluster1-dc1-r1-sts</tspan></text><text x="675" y="32.5" alignment-baseline="central" class="actor" dominant-baseline="central" style="text-anchor:middle;font-size:14px"><tspan x="675" dy="7">StatefulSet</tspan></text></g><g><line id="actor4" x1="875" x2="875" y1="5" y2="1906" stroke="#999" stroke-width=".5" class="actor-line"/><rect width="150" height="65" x="800" y="0" fill="#eaeaea" stroke="#666" class="actor" rx="3" ry="3"/><text x="875" y="32.5" alignment-baseline="central" class="actor" dominant-baseline="central" style="text-anchor:middle;font-size:14px"><tspan x="875" dy="-7">cluster1-dc1-r2-sts</tspan></text><text x="875" y="32.5" alignment-baseline="central" class="actor" dominant-baseline="central" style="text-anchor:middle;font-size:14px"><tspan x="875" dy="7">StatefulSet</tspan></text></g><g><line id="actor5" x1="1075" x2="1075" y1="5" y2="1906" stroke="#999" stroke-width=".5" class="actor-line"/><rect width="150" height="65" x="1000" y="0" fill="#eaeaea" stroke="#666" class="actor" rx="3" ry="3"/><text x="1075" y="32.5" alignment-baseline="central" class="actor" dominant-baseline="central" style="text-anchor:middle;font-size:14px"><tspan x="1075" dy="-7">StatefulSet</tspan></text><text x="1075" y="32.5" alignment-baseline="central" class="actor" dominant-baseline="central" style="text-anchor:middle;font-size:14px"><tspan x="1075" dy="7">Controller</tspan></text></g><g><line id="actor6" x1="1275" x2="1275" y1="5" y2="1906" stroke="#999" stroke-width=".5" class="actor-line"/><rect width="150" height="65" x="1200" y="0" fill="#eaeaea" stroke="#666" class="actor" rx="3" ry="3"/><text x="1275" y="32.5" alignment-baseline="central" class="actor" dominant-baseline="central" style="text-anchor:middle;font-size:14px"><tspan x="1275" dy="-7">cluster1-dc1-r1-sts-0</tspan></text><text x="1275" y="32.5" alignment-baseline="central" class="actor" dominant-baseline="central" style="text-anchor:middle;font-size:14px"><tspan x="1275" dy="7">Pod</tspan></text></g><g><line id="actor7" x1="1475" x2="1475" y1="5" y2="1906" stroke="#999" stroke-width=".5" class="actor-line"/><rect width="150" height="65" x="1400" y="0" fill="#eaeaea" stroke="#666" class="actor" rx="3" ry="3"/><text x="1475" y="32.5" alignment-baseline="central" class="actor" dominant-baseline="central" style="text-anchor:middle;font-size:14px"><tspan x="1475" dy="-7">cluster1-dc1-r1-sts-1</tspan></text><text x="1475" y="32.5" alignment-baseline="central" class="actor" dominant-baseline="central" style="text-anchor:middle;font-size:14px"><tspan x="1475" dy="7">Pod</tspan></text></g><g><line id="actor8" x1="1675" x2="1675" y1="5" y2="1906" stroke="#999" stroke-width=".5" class="actor-line"/><rect width="150" height="65" x="1600" y="0" fill="#eaeaea" stroke="#666" class="actor" rx="3" ry="3"/><text x="1675" y="32.5" alignment-baseline="central" class="actor" dominant-baseline="central" style="text-anchor:middle;font-size:14px"><tspan x="1675" dy="-7">cluster1-dc1-r2-sts-0</tspan></text><text x="1675" y="32.5" alignment-baseline="central" class="actor" dominant-baseline="central" style="text-anchor:middle;font-size:14px"><tspan x="1675" dy="7">Pod</tspan></text></g><g><line id="actor9" x1="1875" x2="1875" y1="5" y2="1906" stroke="#999" stroke-width=".5" class="actor-line"/><rect width="150" height="65" x="1800" y="0" fill="#eaeaea" stroke="#666" class="actor" rx="3" ry="3"/><text x="1875" y="32.5" alignment-baseline="central" class="actor" dominant-baseline="central" style="text-anchor:middle;font-size:14px"><tspan x="1875" dy="-7">cluster1-dc1-r2-sts-1</tspan></text><text x="1875" y="32.5" alignment-baseline="central" class="actor" dominant-baseline="central" style="text-anchor:middle;font-size:14px"><tspan x="1875" dy="7">Pod</tspan></text></g><defs><marker id="arrowhead" markerHeight="4" markerWidth="6" orient="auto" refX="5" refY="2"><path d="M 0,0 V 4 L6,2 Z"/></marker></defs><defs><marker id="crosshead" markerHeight="8" markerWidth="15" orient="auto" refX="16" refY="4"><path fill="#000" stroke="#000" stroke-width="1" d="M 9,2 V 6 L16,4 Z" style="stroke-dasharray:0,0"/><path fill="none" stroke="#000" stroke-width="1" d="M 0,1 L 6,7 M 6,1 L 0,7" style="stroke-dasharray:0,0"/></marker></defs><defs><marker id="sequencenumber" markerHeight="40" markerWidth="60" orient="auto" refX="15" refY="15"><circle cx="15" cy="15" r="6"/></marker></defs><g><text x="275" y="93" class="messageText" style="text-anchor:middle">update config</text><line x1="75" x2="475" y1="100" y2="100" stroke="#000" stroke-width="2" marker-end="url(#arrowhead)" class="messageLine0" style="fill:none"/></g><g><text x="375" y="128" class="messageText" style="text-anchor:middle">update event</text><line x1="475" x2="275" y1="135" y2="135" stroke="#000" stroke-width="2" marker-end="url(#arrowhead)" class="messageLine0" style="fill:none"/></g><g><text x="375" y="163" class="messageText" style="text-anchor:middle">set Updating condition to True</text><line x1="275" x2="475" y1="170" y2="170" stroke="#000" stroke-width="2" marker-end="url(#arrowhead)" class="messageLine0" style="fill:none"/></g><g><text x="475" y="198" class="messageText" style="text-anchor:middle">update pod template</text><line x1="275" x2="675" y1="205" y2="205" stroke="#000" stroke-width="2" marker-end="url(#arrowhead)" class="messageLine0" style="fill:none"/></g><g><text x="875" y="233" class="messageText" style="text-anchor:middle">update event</text><line x1="675" x2="1075" y1="240" y2="240" stroke="#000" stroke-width="2" marker-end="url(#arrowhead)" class="messageLine0" style="fill:none"/></g><g><text x="1275" y="268" class="messageText" style="text-anchor:middle">delete and recreate</text><line x1="1075" x2="1475" y1="275" y2="275" stroke="#000" stroke-width="2" marker-end="url(#arrowhead)" class="messageLine0" style="fill:none"/></g><g><text x="875" y="303" class="messageText" style="text-anchor:middle">decrement ready replicas</text><line x1="1075" x2="675" y1="310" y2="310" stroke="#000" stroke-width="2" marker-end="url(#arrowhead)" class="messageLine0" style="fill:none"/></g><g><text x="475" y="338" class="messageText" style="text-anchor:middle">update event</text><line x1="675" x2="275" y1="345" y2="345" stroke="#000" stroke-width="2" marker-end="url(#arrowhead)" class="messageLine0" style="fill:none"/></g><g><text x="875" y="398" class="messageText" style="text-anchor:middle">check Node Management API running</text><line x1="275" x2="1475" y1="405" y2="405" stroke="#000" stroke-width="2" marker-end="url(#arrowhead)" class="messageLine0" style="fill:none"/></g><g><line x1="265" x2="1485" y1="355" y2="355" class="loopLine"/><line x1="1485" x2="1485" y1="355" y2="415" class="loopLine"/><line x1="265" x2="1485" y1="415" y2="415" class="loopLine"/><line x1="265" x2="265" y1="355" y2="415" class="loopLine"/><polygon points="265 355 315 355 315 368 306.6 375 265 375" class="labelBox"/><text x="272.5" y="370" class="labelText"><tspan x="272.5">loop</tspan></text><text x="875" y="370" class="loopText" style="text-anchor:middle"><tspan x="875">[ requeue reconcile event until Node Management API running ]</tspan></text></g><g><text x="875" y="443" class="messageText" style="text-anchor:middle">start cassandra</text><line x1="275" x2="1475" y1="450" y2="450" stroke="#000" stroke-width="2" marker-end="url(#arrowhead)" class="messageLine0" style="fill:none"/></g><g><rect width="450" height="52" x="1050" y="460" fill="#EDF2AE" stroke="#666" class="note" rx="0" ry="0"/><text x="1046" y="484" class="noteText"><tspan x="1066">pod ready when cassandra</tspan></text><text x="1046" y="500" class="noteText"><tspan x="1066">finished starting</tspan></text></g><g><text x="1275" y="540" class="messageText" style="text-anchor:middle">update event (pod ready)</text><line x1="1475" x2="1075" y1="547" y2="547" stroke="#000" stroke-width="2" marker-end="url(#arrowhead)" class="messageLine0" style="fill:none"/></g><g><text x="875" y="575" class="messageText" style="text-anchor:middle">increment ready replicas</text><line x1="1075" x2="675" y1="582" y2="582" stroke="#000" stroke-width="2" marker-end="url(#arrowhead)" class="messageLine0" style="fill:none"/></g><g><text x="475" y="610" class="messageText" style="text-anchor:middle">update event</text><line x1="675" x2="275" y1="617" y2="617" stroke="#000" stroke-width="2" marker-end="url(#arrowhead)" class="messageLine0" style="fill:none"/></g><g><text x="1175" y="645" class="messageText" style="text-anchor:middle">delete and recreate</text><line x1="1075" x2="1275" y1="652" y2="652" stroke="#000" stroke-width="2" marker-end="url(#arrowhead)" class="messageLine0" style="fill:none"/></g><g><text x="875" y="680" class="messageText" style="text-anchor:middle">decrement ready replicas</text><line x1="1075" x2="675" y1="687" y2="687" stroke="#000" stroke-width="2" marker-end="url(#arrowhead)" class="messageLine0" style="fill:none"/></g><g><text x="475" y="715" class="messageText" style="text-anchor:middle">update event</text><line x1="675" x2="275" y1="722" y2="722" stroke="#000" stroke-width="2" marker-end="url(#arrowhead)" class="messageLine0" style="fill:none"/></g><g><text x="775" y="775" class="messageText" style="text-anchor:middle">check Node Management API running</text><line x1="275" x2="1275" y1="782" y2="782" stroke="#000" stroke-width="2" marker-end="url(#arrowhead)" class="messageLine0" style="fill:none"/></g><g><line x1="265" x2="1285" y1="732" y2="732" class="loopLine"/><line x1="1285" x2="1285" y1="732" y2="792" class="loopLine"/><line x1="265" x2="1285" y1="792" y2="792" class="loopLine"/><line x1="265" x2="265" y1="732" y2="792" class="loopLine"/><polygon points="265 732 315 732 315 745 306.6 752 265 752" class="labelBox"/><text x="272.5" y="747" class="labelText"><tspan x="272.5">loop</tspan></text><text x="775" y="747" class="loopText" style="text-anchor:middle"><tspan x="775">[ requeue reconcile event until Node Management API running ]</tspan></text></g><g><text x="775" y="820" class="messageText" style="text-anchor:middle">start cassandra</text><line x1="275" x2="1275" y1="827" y2="827" stroke="#000" stroke-width="2" marker-end="url(#arrowhead)" class="messageLine0" style="fill:none"/></g><g><rect width="250" height="52" x="1050" y="837" fill="#EDF2AE" stroke="#666" class="note" rx="0" ry="0"/><text x="1046" y="861" class="noteText"><tspan x="1066">pod ready when cassandra</tspan></text><text x="1046" y="877" class="noteText"><tspan x="1066">finished starting</tspan></text></g><g><text x="1175" y="917" class="messageText" style="text-anchor:middle">update event (pod ready)</text><line x1="1275" x2="1075" y1="924" y2="924" stroke="#000" stroke-width="2" marker-end="url(#arrowhead)" class="messageLine0" style="fill:none"/></g><g><text x="875" y="952" class="messageText" style="text-anchor:middle">increment ready replicas</text><line x1="1075" x2="675" y1="959" y2="959" stroke="#000" stroke-width="2" marker-end="url(#arrowhead)" class="messageLine0" style="fill:none"/></g><g><text x="475" y="987" class="messageText" style="text-anchor:middle">update event</text><line x1="675" x2="275" y1="994" y2="994" stroke="#000" stroke-width="2" marker-end="url(#arrowhead)" class="messageLine0" style="fill:none"/></g><g><text x="575" y="1022" class="messageText" style="text-anchor:middle">update pod template</text><line x1="275" x2="875" y1="1029" y2="1029" stroke="#000" stroke-width="2" marker-end="url(#arrowhead)" class="messageLine0" style="fill:none"/></g><g><text x="975" y="1057" class="messageText" style="text-anchor:middle">update event</text><line x1="875" x2="1075" y1="1064" y2="1064" stroke="#000" stroke-width="2" marker-end="url(#arrowhead)" class="messageLine0" style="fill:none"/></g><g><text x="1475" y="1092" class="messageText" style="text-anchor:middle">delete and recreate</text><line x1="1075" x2="1875" y1="1099" y2="1099" stroke="#000" stroke-width="2" marker-end="url(#arrowhead)" class="messageLine0" style="fill:none"/></g><g><text x="975" y="1127" class="messageText" style="text-anchor:middle">decrement ready replicas</text><line x1="1075" x2="875" y1="1134" y2="1134" stroke="#000" stroke-width="2" marker-end="url(#arrowhead)" class="messageLine0" style="fill:none"/></g><g><text x="575" y="1162" class="messageText" style="text-anchor:middle">update event</text><line x1="875" x2="275" y1="1169" y2="1169" stroke="#000" stroke-width="2" marker-end="url(#arrowhead)" class="messageLine0" style="fill:none"/></g><g><text x="1075" y="1222" class="messageText" style="text-anchor:middle">check Node Management API running</text><line x1="275" x2="1875" y1="1229" y2="1229" stroke="#000" stroke-width="2" marker-end="url(#arrowhead)" class="messageLine0" style="fill:none"/></g><g><line x1="265" x2="1885" y1="1179" y2="1179" class="loopLine"/><line x1="1885" x2="1885" y1="1179" y2="1239" class="loopLine"/><line x1="265" x2="1885" y1="1239" y2="1239" class="loopLine"/><line x1="265" x2="265" y1="1179" y2="1239" class="loopLine"/><polygon points="265 1179 315 1179 315 1192 306.6 1199 265 1199" class="labelBox"/><text x="272.5" y="1194" class="labelText"><tspan x="272.5">loop</tspan></text><text x="1075" y="1194" class="loopText" style="text-anchor:middle"><tspan x="1075">[ requeue reconcile event until Node Management API running ]</tspan></text></g><g><text x="1075" y="1267" class="messageText" style="text-anchor:middle">start cassandra</text><line x1="275" x2="1875" y1="1274" y2="1274" stroke="#000" stroke-width="2" marker-end="url(#arrowhead)" class="messageLine0" style="fill:none"/></g><g><rect width="850" height="36" x="1050" y="1284" fill="#EDF2AE" stroke="#666" class="note" rx="0" ry="0"/><text x="1046" y="1308" class="noteText"><tspan x="1066">pod ready when cassandra finished starting</tspan></text></g><g><text x="1475" y="1348" class="messageText" style="text-anchor:middle">update event (pod ready)</text><line x1="1875" x2="1075" y1="1355" y2="1355" stroke="#000" stroke-width="2" marker-end="url(#arrowhead)" class="messageLine0" style="fill:none"/></g><g><text x="975" y="1383" class="messageText" style="text-anchor:middle">increment ready replicas</text><line x1="1075" x2="875" y1="1390" y2="1390" stroke="#000" stroke-width="2" marker-end="url(#arrowhead)" class="messageLine0" style="fill:none"/></g><g><text x="575" y="1418" class="messageText" style="text-anchor:middle">update event</text><line x1="875" x2="275" y1="1425" y2="1425" stroke="#000" stroke-width="2" marker-end="url(#arrowhead)" class="messageLine0" style="fill:none"/></g><g><text x="1375" y="1453" class="messageText" style="text-anchor:middle">delete and recreate</text><line x1="1075" x2="1675" y1="1460" y2="1460" stroke="#000" stroke-width="2" marker-end="url(#arrowhead)" class="messageLine0" style="fill:none"/></g><g><text x="975" y="1488" class="messageText" style="text-anchor:middle">decrement ready replicas</text><line x1="1075" x2="875" y1="1495" y2="1495" stroke="#000" stroke-width="2" marker-end="url(#arrowhead)" class="messageLine0" style="fill:none"/></g><g><text x="475" y="1523" class="messageText" style="text-anchor:middle">update event</text><line x1="675" x2="275" y1="1530" y2="1530" stroke="#000" stroke-width="2" marker-end="url(#arrowhead)" class="messageLine0" style="fill:none"/></g><g><text x="975" y="1583" class="messageText" style="text-anchor:middle">check Node Management API running</text><line x1="275" x2="1675" y1="1590" y2="1590" stroke="#000" stroke-width="2" marker-end="url(#arrowhead)" class="messageLine0" style="fill:none"/></g><g><line x1="265" x2="1685" y1="1540" y2="1540" class="loopLine"/><line x1="1685" x2="1685" y1="1540" y2="1600" class="loopLine"/><line x1="265" x2="1685" y1="1600" y2="1600" class="loopLine"/><line x1="265" x2="265" y1="1540" y2="1600" class="loopLine"/><polygon points="265 1540 315 1540 315 1553 306.6 1560 265 1560" class="labelBox"/><text x="272.5" y="1555" class="labelText"><tspan x="272.5">loop</tspan></text><text x="975" y="1555" class="loopText" style="text-anchor:middle"><tspan x="975">[ requeue reconcile event until Node Management API running ]</tspan></text></g><g><text x="975" y="1628" class="messageText" style="text-anchor:middle">start cassandra</text><line x1="275" x2="1675" y1="1635" y2="1635" stroke="#000" stroke-width="2" marker-end="url(#arrowhead)" class="messageLine0" style="fill:none"/></g><g><rect width="650" height="36" x="1050" y="1645" fill="#EDF2AE" stroke="#666" class="note" rx="0" ry="0"/><text x="1046" y="1669" class="noteText"><tspan x="1066">pod ready when cassandra finished starting</tspan></text></g><g><text x="1375" y="1709" class="messageText" style="text-anchor:middle">update event (pod ready)</text><line x1="1675" x2="1075" y1="1716" y2="1716" stroke="#000" stroke-width="2" marker-end="url(#arrowhead)" class="messageLine0" style="fill:none"/></g><g><text x="975" y="1744" class="messageText" style="text-anchor:middle">increment ready replicas</text><line x1="1075" x2="875" y1="1751" y2="1751" stroke="#000" stroke-width="2" marker-end="url(#arrowhead)" class="messageLine0" style="fill:none"/></g><g><text x="575" y="1779" class="messageText" style="text-anchor:middle">update event</text><line x1="875" x2="275" y1="1786" y2="1786" stroke="#000" stroke-width="2" marker-end="url(#arrowhead)" class="messageLine0" style="fill:none"/></g><g><text x="375" y="1814" class="messageText" style="text-anchor:middle">set Updating condition to False</text><line x1="275" x2="475" y1="1821" y2="1821" stroke="#000" stroke-width="2" marker-end="url(#arrowhead)" class="messageLine0" style="fill:none"/></g><g><rect width="150" height="65" x="0" y="1841" fill="#eaeaea" stroke="#666" class="actor" rx="3" ry="3"/><text x="75" y="1873.5" alignment-baseline="central" class="actor" dominant-baseline="central" style="text-anchor:middle;font-size:14px"><tspan x="75" dy="0">User</tspan></text></g><g><rect width="150" height="65" x="200" y="1841" fill="#eaeaea" stroke="#666" class="actor" rx="3" ry="3"/><text x="275" y="1873.5" alignment-baseline="central" class="actor" dominant-baseline="central" style="text-anchor:middle;font-size:14px"><tspan x="275" dy="0">Cass Operator</tspan></text></g><g><rect width="150" height="65" x="400" y="1841" fill="#eaeaea" stroke="#666" class="actor" rx="3" ry="3"/><text x="475" y="1873.5" alignment-baseline="central" class="actor" dominant-baseline="central" style="text-anchor:middle;font-size:14px"><tspan x="475" dy="-7">dc1</tspan></text><text x="475" y="1873.5" alignment-baseline="central" class="actor" dominant-baseline="central" style="text-anchor:middle;font-size:14px"><tspan x="475" dy="7">CassandraDatacenter</tspan></text></g><g><rect width="150" height="65" x="600" y="1841" fill="#eaeaea" stroke="#666" class="actor" rx="3" ry="3"/><text x="675" y="1873.5" alignment-baseline="central" class="actor" dominant-baseline="central" style="text-anchor:middle;font-size:14px"><tspan x="675" dy="-7">cluster1-dc1-r1-sts</tspan></text><text x="675" y="1873.5" alignment-baseline="central" class="actor" dominant-baseline="central" style="text-anchor:middle;font-size:14px"><tspan x="675" dy="7">StatefulSet</tspan></text></g><g><rect width="150" height="65" x="800" y="1841" fill="#eaeaea" stroke="#666" class="actor" rx="3" ry="3"/><text x="875" y="1873.5" alignment-baseline="central" class="actor" dominant-baseline="central" style="text-anchor:middle;font-size:14px"><tspan x="875" dy="-7">cluster1-dc1-r2-sts</tspan></text><text x="875" y="1873.5" alignment-baseline="central" class="actor" dominant-baseline="central" style="text-anchor:middle;font-size:14px"><tspan x="875" dy="7">StatefulSet</tspan></text></g><g><rect width="150" height="65" x="1000" y="1841" fill="#eaeaea" stroke="#666" class="actor" rx="3" ry="3"/><text x="1075" y="1873.5" alignment-baseline="central" class="actor" dominant-baseline="central" style="text-anchor:middle;font-size:14px"><tspan x="1075" dy="-7">StatefulSet</tspan></text><text x="1075" y="1873.5" alignment-baseline="central" class="actor" dominant-baseline="central" style="text-anchor:middle;font-size:14px"><tspan x="1075" dy="7">Controller</tspan></text></g><g><rect width="150" height="65" x="1200" y="1841" fill="#eaeaea" stroke="#666" class="actor" rx="3" ry="3"/><text x="1275" y="1873.5" alignment-baseline="central" class="actor" dominant-baseline="central" style="text-anchor:middle;font-size:14px"><tspan x="1275" dy="-7">cluster1-dc1-r1-sts-0</tspan></text><text x="1275" y="1873.5" alignment-baseline="central" class="actor" dominant-baseline="central" style="text-anchor:middle;font-size:14px"><tspan x="1275" dy="7">Pod</tspan></text></g><g><rect width="150" height="65" x="1400" y="1841" fill="#eaeaea" stroke="#666" class="actor" rx="3" ry="3"/><text x="1475" y="1873.5" alignment-baseline="central" class="actor" dominant-baseline="central" style="text-anchor:middle;font-size:14px"><tspan x="1475" dy="-7">cluster1-dc1-r1-sts-1</tspan></text><text x="1475" y="1873.5" alignment-baseline="central" class="actor" dominant-baseline="central" style="text-anchor:middle;font-size:14px"><tspan x="1475" dy="7">Pod</tspan></text></g><g><rect width="150" height="65" x="1600" y="1841" fill="#eaeaea" stroke="#666" class="actor" rx="3" ry="3"/><text x="1675" y="1873.5" alignment-baseline="central" class="actor" dominant-baseline="central" style="text-anchor:middle;font-size:14px"><tspan x="1675" dy="-7">cluster1-dc1-r2-sts-0</tspan></text><text x="1675" y="1873.5" alignment-baseline="central" class="actor" dominant-baseline="central" style="text-anchor:middle;font-size:14px"><tspan x="1675" dy="7">Pod</tspan></text></g><g><rect width="150" height="65" x="1800" y="1841" fill="#eaeaea" stroke="#666" class="actor" rx="3" ry="3"/><text x="1875" y="1873.5" alignment-baseline="central" class="actor" dominant-baseline="central" style="text-anchor:middle;font-size:14px"><tspan x="1875" dy="-7">cluster1-dc1-r2-sts-1</tspan></text><text x="1875" y="1873.5" alignment-baseline="central" class="actor" dominant-baseline="central" style="text-anchor:middle;font-size:14px"><tspan x="1875" dy="7">Pod</tspan></text></g></svg>